<?xml version="1.0" encoding="utf-8"?>
<!-- Generator: Adobe Illustrator 19.0.0, SVG Export Plug-In . SVG Version: 6.00 Build 0)  -->
<svg version="1.1" id="Capa_1" xmlns="http://www.w3.org/2000/svg" xmlns:xlink="http://www.w3.org/1999/xlink" x="0px" y="0px"
	 viewBox="93 -93.6 436.6 436.6" style="enable-background:new 93 -93.6 436.6 436.6;" xml:space="preserve">
<style type="text/css">
	.st0{fill:#3F3F3F;}
</style>
<g>
	<path class="st0" d="M170.3,187.9c-13.8,0-25,11.2-25,25c0,13.8,11.2,25,25,25s25-11.2,25-25C195.3,199.1,184.1,187.9,170.3,187.9z
		 M170.3,223c-5.5,0-10-4.5-10-10s4.5-10,10-10s10,4.5,10,10S175.8,223,170.3,223z"/>
	<path class="st0" d="M430.8,187.9c-13.8,0-25,11.2-25,25c0,13.8,11.2,25,25,25s25-11.2,25-25C455.8,199.1,444.6,187.9,430.8,187.9z
		 M430.8,223c-5.5,0-10-4.5-10-10s4.5-10,10-10s10,4.5,10,10S436.3,223,430.8,223z"/>
	<path class="st0" d="M493.1,1H130.3C110,1,93.4,17.5,93.4,37.9v177.8c0,4.1,3.4,7.5,7.5,7.5h20.2c4.8,22.8,25,40,49.2,40
		s44.4-17.2,49.2-40h162.1c4.8,22.8,25,40,49.2,40s44.4-17.2,49.2-40h42.6c4.1,0,7.5-3.4,7.5-7.5V37.9C530,17.5,513.5,1,493.1,1z
		 M515,133.7h-40.5c-4.7,0-8.5-3.8-8.5-8.5V53.8c0-4.7,3.8-8.5,8.5-8.5H515V133.7z M108.4,200.3h13.3c-0.7,2.6-1.1,5.2-1.4,7.9
		h-11.9V200.3z M170.3,248.2c-19.4,0-35.3-15.8-35.3-35.3s15.8-35.3,35.3-35.3s35.3,15.8,35.3,35.3S189.7,248.2,170.3,248.2z
		 M430.8,248.2c-19.4,0-35.3-15.8-35.3-35.3s15.8-35.3,35.3-35.3s35.3,15.8,35.3,35.3S450.2,248.2,430.8,248.2z M430.8,162.7
		c-17.5,0-33,9-42,22.6H248c-4.1,0-7.5,3.4-7.5,7.5s3.4,7.5,7.5,7.5h134.1c-0.7,2.6-1.1,5.2-1.4,7.9H220.3
		c-2.4-25.5-23.9-45.5-50-45.5c-17.5,0-33,9-42,22.6h-19.9V37.9c0-12.1,9.8-21.9,21.9-21.9h362.8c9.5,0,17.5,6,20.6,14.4h-39.2
		c-12.9,0-23.5,10.5-23.5,23.5v71.4c0,12.9,10.5,23.5,23.5,23.5H515v9h-12.5c-4.1,0-7.5,3.4-7.5,7.5s3.4,7.5,7.5,7.5H515v12.6h-42.3
		C463.7,171.7,448.3,162.7,430.8,162.7z M480.8,208.2c-0.3-2.7-0.7-5.3-1.4-7.9H515v7.9H480.8z"/>
	<path class="st0" d="M418.6,30.4H148.9c-12.9,0-23.5,10.5-23.5,23.5v71.4c0,12.9,10.5,23.5,23.5,23.5h269.7
		c12.9,0,23.5-10.5,23.5-23.5V53.8C442,40.9,431.5,30.4,418.6,30.4z M329,45.4v88.3h-87V45.4H329L329,45.4z M140.5,125.3V53.8
		c0-4.7,3.8-8.5,8.5-8.5h78.1v88.3H149C144.2,133.7,140.5,129.9,140.5,125.3z M427,125.3c0,4.7-3.8,8.5-8.5,8.5H344V45.4h74.5
		c4.7,0,8.5,3.8,8.5,8.5V125.3z"/>
	<path class="st0" d="M233.3,186.6c-2.8-1.9-6.6-1.6-9.1,0.6c-2.3,2-3.1,5.3-2.1,8.2c1.1,3,4.2,5.1,7.4,4.9c3.1-0.2,5.9-2.3,6.8-5.3
		C237.3,191.9,236,188.4,233.3,186.6C232.9,186.3,233.7,186.9,233.3,186.6z"/>
</g>
</svg>
