<?xml version="1.0" encoding="utf-8"?>
<!-- Generator: Adobe Illustrator 19.0.0, SVG Export Plug-In . SVG Version: 6.00 Build 0)  -->
<svg version="1.1" id="Warstwa_1" xmlns="http://www.w3.org/2000/svg" xmlns:xlink="http://www.w3.org/1999/xlink" x="0px" y="0px"
	 viewBox="411 -487 1024 1024" style="enable-background:new 411 -487 1024 1024;" xml:space="preserve">
<style type="text/css">
	.st0{fill:#FFFFFF;}
</style>
<path class="st0" d="M1051-199c-35.4,0-64-28.7-64-64s28.7-64,64-64c35.4,0,64,28.7,64,64S1086.4-199,1051-199z M1174.5-295
	c-14.3-55-64-96-123.5-96c-59.5,0-109.2,41-123.5,96H539v64h388.5c14.3,55,64,96,123.5,96c59.5,0,109.2-41,123.5-96H1307v-64H1174.5
	z M1051,377c-35.4,0-64-28.7-64-64c0-35.4,28.7-64,64-64c35.4,0,64,28.7,64,64S1086.4,377,1051,377 M1051,185
	c-59.5,0-109.2,41-123.5,96H539v64h388.5c14.3,55,64,96,123.5,96c59.5,0,109.2-41,123.5-96H1307v-64h-132.5
	C1160.2,226,1110.5,185,1051,185 M795,89c-35.4,0-64-28.7-64-64c0-35.4,28.7-64,64-64c35.4,0,64,28.7,64,64
	C859,60.4,830.4,89,795,89 M795-103c-59.5,0-109.2,41-123.5,96H539v64h132.5c14.3,55,64,96,123.5,96s109.2-41,123.5-96H1307V-7
	H918.5C904.2-62,854.5-103,795-103"/>
</svg>
