<?xml version="1.0" encoding="utf-8"?>
<!-- Generator: Adobe Illustrator 19.0.0, SVG Export Plug-In . SVG Version: 6.00 Build 0)  -->
<svg version="1.1" id="Warstwa_1" xmlns="http://www.w3.org/2000/svg" xmlns:xlink="http://www.w3.org/1999/xlink" x="0px" y="0px"
	 viewBox="0 0 202 50" style="enable-background:new 0 0 202 50;" xml:space="preserve">
<style type="text/css">
	.st0{fill:url(#XMLID_3_);filter:url(#Adobe_OpacityMaskFilter);}
	.st1{mask:url(#id0_2_);fill:#FFFFFF;}
	.st2{fill:url(#XMLID_4_);filter:url(#Adobe_OpacityMaskFilter_1_);}
	.st3{mask:url(#id2_2_);fill:#FFFFFF;}
	.st4{fill:url(#XMLID_12_);filter:url(#Adobe_OpacityMaskFilter_2_);}
	.st5{mask:url(#id4_2_);fill:#FFFFFF;}
	.st6{fill:url(#XMLID_13_);filter:url(#Adobe_OpacityMaskFilter_3_);}
	.st7{mask:url(#id6_2_);fill:#FFFFFF;}
	.st8{fill:url(#XMLID_15_);filter:url(#Adobe_OpacityMaskFilter_4_);}
	.st9{mask:url(#id8_2_);fill:#FFFFFF;}
</style>
<g id="Warstwa_x0020_1">
	<g id="_2265962404496">
		<g id="XMLID_2_">
			<defs>
				<filter id="Adobe_OpacityMaskFilter" filterUnits="userSpaceOnUse" x="100.3" y="12.3" width="31.4" height="29.2">
					<feColorMatrix  type="matrix" values="1 0 0 0 0  0 1 0 0 0  0 0 1 0 0  0 0 0 1 0"/>
				</filter>
			</defs>
			<mask maskUnits="userSpaceOnUse" x="100.3" y="12.3" width="31.4" height="29.2" id="id0_2_">
				
					<linearGradient id="XMLID_3_" gradientUnits="userSpaceOnUse" x1="4988.1968" y1="-5316.3525" x2="4995.1069" y2="-5381.4224" gradientTransform="matrix(2.834646e-002 0 0 -2.834646e-002 -22.348 -94.7197)">
					<stop  offset="0" style="stop-color:#FFFFFF"/>
					<stop  offset="1" style="stop-color:#FFFFFF;stop-opacity:0"/>
				</linearGradient>
				<rect id="XMLID_76_" x="100.2" y="12.2" class="st0" width="31.6" height="29.4"/>
			</mask>
			<path id="XMLID_27_" class="st1" d="M108.4,18.3l-3.1-1.7c0.9-1.3,3.3-2.3,4.9-3.2c0.6-0.6,1.1-0.6,1.5-0.4
				c-0.6,1.9-1.5,3.6-2.4,5.3l-0.4,0.2L108.4,18.3z M122.9,18.7c-0.5-1.7-1.3-3.6-3.3-5.5c2.6,0,4.6,1.1,6.8,2.8l-0.6,1.5l-2.5,1.3
				H122.9L122.9,18.7z M113.2,19.7l-3.3-1.1l3.8-6.1l2-0.2V20h-2L113.2,19.7z M117,20L117,20l-0.4-7.7l2.2,0.2
				c1.5,2.1,2.4,3.8,3.3,5.7c-1.3,1.5-2.9,1.3-4.4,1.9L117,20L117,20z M125.9,26.6l-1.7-6.2c-0.2-0.2-0.7-0.2-0.7-0.2l0.2-1.3
				l3.5-1.9c2.2,1.9,3.1,3.6,3.7,5.5c0.7,1.5,0.7,2.6,0.7,3.8l-4.8,0.2L125.9,26.6L125.9,26.6z M116.5,26.8v-6l5.2-1.1l1.1,0.2
				l0.2,1.1c0.6,1.9,0.9,3.6,1.1,5.3l-7.2,0.4H116.5z M107.9,26.8c0-2.1,0.4-4.5,1.5-6.8l6.2,0.9l0.2,1.3c0.2,1.5-0.2,2.8-0.2,4.2
				l-7.3,0.4C108.4,26.8,107.9,26.8,107.9,26.8z M100.3,26.8c0.4-3,0.8-6.2,3.9-9.4l4.5,1.9c-1.1,2.8-1.5,4.8-1.5,7.1l-6.6,0.4
				C100.7,26.8,100.3,26.8,100.3,26.8z M121.7,34.2l-5.2-1v-5.7h7.7l-1.8,7h-0.2L121.7,34.2L121.7,34.2z M109.7,34.5
				c-1.1-2.1-1.6-4.3-1.8-6.6l7.7-0.4v5.7l-5.5,1.3C110.1,34.5,109.7,34.5,109.7,34.5z M127.1,36.6l-3.8-1.7c0.9-2.5,1.8-4.9,1.8-7
				l6.6-0.4c0,3-0.9,5.7-3.1,8.5l-1.1,0.9L127.1,36.6L127.1,36.6z M104.4,36.8l-1.8-1.9c-1.3-2.3-2.2-4.7-2.2-7l5.9-0.1l1.5,6.4
				l0.9,0.7l-4,1.9H104.4z M120,40.9c0.7-1.5,2.2-3.2,2.6-4.9l4.2,1.5l-1.7,1.7l-2.7,1.3l-2,0.5H120L120,40.9z M111.7,40.9
				c-2-0.2-3.9-1.5-6.1-3l2.6-2.1c0.2,0,0.2,0,0.2,0c1.5,0.8,2.2,2.7,3.7,4.3l0.2,1.1L111.7,40.9L111.7,40.9z M113.4,41.5
				c-0.9-1.9-2.7-4.1-3.5-6.2l5.7-1.5c0,0.4,0,0.4,0,0.4l0.2,4.3l-0.2,3h-1.8H113.4z M117.6,41.5h-1.1V34l5.7,0.9l-3.8,6.6
				c-0.2,0-0.2,0-0.2,0H117.6z"/>
			<defs>
				<filter id="Adobe_OpacityMaskFilter_1_" filterUnits="userSpaceOnUse" x="69.8" y="0.7" width="28.8" height="48.6">
					<feColorMatrix  type="matrix" values="1 0 0 0 0  0 1 0 0 0  0 0 1 0 0  0 0 0 1 0"/>
				</filter>
			</defs>
			<mask maskUnits="userSpaceOnUse" x="69.8" y="0.7" width="28.8" height="48.6" id="id2_2_">
				
					<linearGradient id="XMLID_4_" gradientUnits="userSpaceOnUse" x1="3887.6084" y1="-5423.2324" x2="3896.728" y2="-5508.9727" gradientTransform="matrix(2.834646e-002 0 0 -2.834646e-002 -22.348 -94.7197)">
					<stop  offset="0" style="stop-color:#FFFFFF"/>
					<stop  offset="1" style="stop-color:#FFFFFF;stop-opacity:0"/>
				</linearGradient>
				<rect id="XMLID_73_" x="69.7" y="0.6" class="st2" width="29" height="48.8"/>
			</mask>
			<polygon id="XMLID_24_" class="st3" points="69.8,40.5 76.4,15.1 84.2,30.9 92.2,0.7 98.6,40.5 92.4,41 90.4,30.2 84.2,49.3 
				78.2,30.1 76,41.2 			"/>
			<defs>
				<filter id="Adobe_OpacityMaskFilter_2_" filterUnits="userSpaceOnUse" x="152.4" y="13.9" width="49.2" height="25.5">
					<feColorMatrix  type="matrix" values="1 0 0 0 0  0 1 0 0 0  0 0 1 0 0  0 0 0 1 0"/>
				</filter>
			</defs>
			<mask maskUnits="userSpaceOnUse" x="152.4" y="13.9" width="49.2" height="25.5" id="id4_2_">
				
					<linearGradient id="XMLID_12_" gradientUnits="userSpaceOnUse" x1="7118.4072" y1="-5093.1851" x2="7124.6772" y2="-5152.2251" gradientTransform="matrix(2.834646e-002 0 0 -2.834646e-002 -22.348 -94.7197)">
					<stop  offset="0" style="stop-color:#FFFFFF"/>
					<stop  offset="1" style="stop-color:#FFFFFF;stop-opacity:0"/>
				</linearGradient>
				<rect id="XMLID_62_" x="152.3" y="13.8" class="st4" width="49.4" height="25.7"/>
			</mask>
			<path id="XMLID_17_" class="st5" d="M187.9,25.7h1.4c0.8,0,1.4-0.2,1.9-0.5c0.5-0.3,0.9-0.7,1.1-1.2c0.2-0.5,0.3-1,0.3-1.6
				c-0.1-2.1-1.2-3.1-3.4-3.1h-1.3L187.9,25.7L187.9,25.7z M194.9,28.2l6.7,9.1l-6.4,2l-7.4-11.3v10.7l-6.4,0.4V14.6h7.5
				c1.4,0,2.6,0.1,3.7,0.3c1.1,0.2,2.1,0.6,3,1.2c0.9,0.5,1.6,1.3,2.2,2.2c0.6,0.9,0.9,2,1,3.4C198.9,24.6,197.5,26.8,194.9,28.2
				L194.9,28.2z M165.6,13.9c1.8,0,3.5,0.4,5,1c1.6,0.7,3,1.6,4.1,2.8c1.2,1.2,2.1,2.6,2.8,4.1c0.7,1.6,1,3.2,1,5
				c0,1.7-0.4,3.3-1.1,4.8c-0.7,1.5-1.6,2.8-2.8,4c-1.2,1.1-2.6,2-4.2,2.7c-1.6,0.6-3.3,1-5,1c-2.5,0-4.7-0.7-6.7-1.8
				c-2-1.2-3.5-2.7-4.6-4.7c-1.1-2-1.6-4.2-1.6-6.7c0-1.7,0.4-3.3,1.1-4.8c0.7-1.5,1.7-2.8,2.9-3.9c1.2-1.1,2.6-2,4.2-2.6
				C162.1,14.2,163.8,13.9,165.6,13.9L165.6,13.9z M165.3,19.7c-1.2,0-2.3,0.4-3.4,1c-1,0.7-1.9,1.6-2.5,2.7
				c-0.6,1.1-0.9,2.4-0.9,3.7c0.1,1.1,0.4,2.2,1.1,3.2c0.7,1,1.6,1.8,2.7,2.4c1.1,0.6,2.2,0.9,3.5,0.9c1.1-0.1,2.1-0.4,3.2-1.1
				c1-0.7,1.9-1.5,2.5-2.6c0.6-1.1,1-2.2,1-3.3c0-0.3,0-0.5,0-0.6c-0.1-1.2-0.5-2.3-1.2-3.3c-0.7-1-1.5-1.7-2.5-2.3
				C167.6,19.9,166.5,19.7,165.3,19.7z"/>
			<defs>
				<filter id="Adobe_OpacityMaskFilter_3_" filterUnits="userSpaceOnUse" x="131.5" y="14.6" width="18.7" height="24.6">
					<feColorMatrix  type="matrix" values="1 0 0 0 0  0 1 0 0 0  0 0 1 0 0  0 0 0 1 0"/>
				</filter>
			</defs>
			<mask maskUnits="userSpaceOnUse" x="131.5" y="14.6" width="18.7" height="24.6" id="id6_2_">
				
					<linearGradient id="XMLID_13_" gradientUnits="userSpaceOnUse" x1="5856.0361" y1="-5228.0112" x2="5862.106" y2="-5285.2715" gradientTransform="matrix(2.834646e-002 0 0 -2.834646e-002 -22.348 -94.7197)">
					<stop  offset="0" style="stop-color:#FFFFFF"/>
					<stop  offset="1" style="stop-color:#FFFFFF;stop-opacity:0"/>
				</linearGradient>
				<rect id="XMLID_59_" x="131.4" y="14.5" class="st6" width="18.9" height="24.9"/>
			</mask>
			<polygon id="XMLID_14_" class="st7" points="150.2,20.4 144.2,20.4 144.2,38.7 138,39.2 138,20.4 131.5,20.4 133.1,14.6 
				150.2,14.6 			"/>
			<defs>
				<filter id="Adobe_OpacityMaskFilter_4_" filterUnits="userSpaceOnUse" x="0.4" y="13.9" width="69.6" height="25.5">
					<feColorMatrix  type="matrix" values="1 0 0 0 0  0 1 0 0 0  0 0 1 0 0  0 0 0 1 0"/>
				</filter>
			</defs>
			<mask maskUnits="userSpaceOnUse" x="0.4" y="13.9" width="69.6" height="25.5" id="id8_2_">
				
					<linearGradient id="XMLID_15_" gradientUnits="userSpaceOnUse" x1="2170.6689" y1="-5609.3613" x2="2178.9189" y2="-5687.0215" gradientTransform="matrix(2.834646e-002 0 0 -2.834646e-002 -22.348 -94.7197)">
					<stop  offset="0" style="stop-color:#FFFFFF"/>
					<stop  offset="1" style="stop-color:#FFFFFF;stop-opacity:0"/>
				</linearGradient>
				<rect id="XMLID_48_" x="0.3" y="13.8" class="st8" width="69.8" height="25.7"/>
			</mask>
			<path id="XMLID_5_" class="st9" d="M7.6,19.9H6.7V25h0.9c2.7,0,4.1-0.9,4.1-2.6c0-1-0.4-1.7-1.1-2C9.8,20.1,8.8,19.9,7.6,19.9z
				 M11.9,29.9c-0.6,0.2-1.7,0.3-3.5,0.4c-0.4,0-0.8,0-1.1,0c-0.3,0-0.5,0-0.6,0v8.4l-6.3,0.5V14.6h6.9c1.5,0,2.9,0.1,4.1,0.4
				c1.2,0.3,2.3,0.7,3.3,1.3c1,0.6,1.7,1.4,2.3,2.4c0.6,1,0.8,2.3,0.8,3.8c0,1.6-0.5,3.1-1.4,4.5C15.5,28.4,14,29.4,11.9,29.9z
				 M35.5,28.2l6.7,9.1l-6.4,2l-7.4-11.3v10.7L22,39.1V14.6h7.5c1.4,0,2.6,0.1,3.7,0.3c1.1,0.2,2.1,0.6,3,1.2
				c0.9,0.5,1.6,1.3,2.2,2.2c0.6,0.9,0.9,2,1,3.3C39.4,24.6,38.1,26.8,35.5,28.2z M28.4,25.7h1.4c0.8,0,1.4-0.2,1.9-0.5
				c0.5-0.3,0.9-0.7,1.1-1.2c0.2-0.5,0.3-1,0.3-1.6c-0.1-2.1-1.2-3.1-3.4-3.1h-1.3V25.7z M56.7,19.7c-1.2,0-2.3,0.4-3.4,1
				c-1,0.7-1.9,1.6-2.5,2.7c-0.6,1.1-0.9,2.4-0.9,3.7c0.1,1.1,0.4,2.2,1.1,3.2c0.7,1,1.6,1.8,2.7,2.4c1.1,0.6,2.2,0.9,3.5,0.9
				c1.1-0.1,2.1-0.4,3.2-1.1c1-0.7,1.9-1.5,2.5-2.6c0.6-1.1,1-2.2,1-3.3c0-0.3,0-0.5,0-0.6c-0.1-1.2-0.5-2.3-1.2-3.3
				c-0.7-1-1.5-1.7-2.5-2.3C59,19.9,57.9,19.7,56.7,19.7z M57,13.9c1.8,0,3.5,0.4,5,1c1.6,0.7,3,1.6,4.1,2.8
				c1.2,1.2,2.1,2.6,2.8,4.1c0.7,1.6,1,3.2,1,5c0,1.7-0.4,3.3-1.1,4.8c-0.7,1.5-1.6,2.8-2.8,4c-1.2,1.1-2.6,2-4.2,2.7
				c-1.6,0.6-3.3,1-5,1c-2.5,0-4.7-0.7-6.7-1.8c-2-1.2-3.5-2.7-4.6-4.7c-1.1-2-1.6-4.2-1.6-6.7c0-1.7,0.4-3.3,1.1-4.8
				c0.7-1.5,1.7-2.8,2.9-3.9c1.2-1.1,2.6-2,4.2-2.6C53.6,14.2,55.3,13.9,57,13.9z"/>
		</g>
	</g>
</g>
</svg>
