<?xml version="1.0" encoding="utf-8"?>
<!-- Generator: Adobe Illustrator 19.0.0, SVG Export Plug-In . SVG Version: 6.00 Build 0)  -->
<svg version="1.1" id="Warstwa_1" xmlns="http://www.w3.org/2000/svg" xmlns:xlink="http://www.w3.org/1999/xlink" x="0px" y="0px"
	 viewBox="0 0 208 50" style="enable-background:new 0 0 208 50;" xml:space="preserve">
<style type="text/css">
	.st0{fill:url(#XMLID_3_);filter:url(#Adobe_OpacityMaskFilter);}
	.st1{mask:url(#id0_1_);fill:#FFFFFF;}
	.st2{fill:url(#XMLID_4_);filter:url(#Adobe_OpacityMaskFilter_1_);}
	.st3{mask:url(#id2_1_);fill:#FFFFFF;}
	.st4{fill:url(#XMLID_12_);filter:url(#Adobe_OpacityMaskFilter_2_);}
	.st5{mask:url(#id4_1_);fill:#FFFFFF;}
	.st6{fill:url(#XMLID_13_);filter:url(#Adobe_OpacityMaskFilter_3_);}
	.st7{mask:url(#id6_1_);fill:#FFFFFF;}
	.st8{fill:url(#XMLID_15_);filter:url(#Adobe_OpacityMaskFilter_4_);}
	.st9{mask:url(#id8_1_);fill:#FFFFFF;}
</style>
<g id="Warstwa_x0020_1">
	<g id="_2265962404496">
		<g id="XMLID_2_">
			<defs>
				<filter id="Adobe_OpacityMaskFilter" filterUnits="userSpaceOnUse" x="103.2" y="12.3" width="31.4" height="29.2">
					<feColorMatrix  type="matrix" values="1 0 0 0 0  0 1 0 0 0  0 0 1 0 0  0 0 0 1 0"/>
				</filter>
			</defs>
			<mask maskUnits="userSpaceOnUse" x="103.2" y="12.3" width="31.4" height="29.2" id="id0_1_">
				
					<linearGradient id="XMLID_3_" gradientUnits="userSpaceOnUse" x1="4987.8242" y1="-5316.3525" x2="4994.7344" y2="-5381.4224" gradientTransform="matrix(2.834646e-002 0 0 -2.834646e-002 -19.4331 -94.7197)">
					<stop  offset="0" style="stop-color:#FFFFFF"/>
					<stop  offset="1" style="stop-color:#FFFFFF;stop-opacity:0"/>
				</linearGradient>
				<rect id="XMLID_76_" x="103.1" y="12.2" class="st0" width="31.6" height="29.4"/>
			</mask>
			<path id="XMLID_27_" class="st1" d="M111.3,18.3l-3.1-1.7c0.9-1.3,3.3-2.3,4.9-3.2c0.6-0.6,1.1-0.6,1.5-0.4
				c-0.6,1.9-1.5,3.6-2.4,5.3l-0.4,0.2L111.3,18.3z M125.8,18.7c-0.5-1.7-1.3-3.6-3.3-5.5c2.6,0,4.6,1.1,6.8,2.8l-0.6,1.5l-2.5,1.3
				H125.8L125.8,18.7z M116.1,19.7l-3.3-1.1l3.8-6.1l2-0.2V20h-2L116.1,19.7z M119.9,20L119.9,20l-0.4-7.7l2.2,0.2
				c1.5,2.1,2.4,3.8,3.3,5.7c-1.3,1.5-2.9,1.3-4.4,1.9L119.9,20L119.9,20z M128.8,26.6l-1.7-6.2c-0.2-0.2-0.7-0.2-0.7-0.2l0.2-1.3
				l3.5-1.9c2.2,1.9,3.1,3.6,3.7,5.5c0.7,1.5,0.7,2.6,0.7,3.8l-4.8,0.2L128.8,26.6L128.8,26.6z M119.4,26.8v-6l5.2-1.1l1.1,0.2
				L126,21c0.6,1.9,0.9,3.6,1.1,5.3l-7.2,0.4H119.4z M110.8,26.8c0-2.1,0.4-4.5,1.5-6.8l6.2,0.9l0.2,1.3c0.2,1.5-0.2,2.8-0.2,4.2
				l-7.3,0.4C111.3,26.8,110.8,26.8,110.8,26.8z M103.2,26.8c0.4-3,0.8-6.2,3.9-9.4l4.5,1.9c-1.1,2.8-1.5,4.8-1.5,7.1l-6.6,0.4
				C103.6,26.8,103.2,26.8,103.2,26.8z M124.6,34.2l-5.2-1v-5.7h7.7l-1.8,7h-0.2L124.6,34.2L124.6,34.2z M112.6,34.5
				c-1.1-2.1-1.6-4.3-1.8-6.6l7.7-0.4v5.7l-5.5,1.3C113,34.5,112.6,34.5,112.6,34.5z M130,36.6l-3.8-1.7c0.9-2.5,1.8-4.9,1.8-7
				l6.6-0.4c0,3-0.9,5.7-3.1,8.5l-1.1,0.9L130,36.6L130,36.6z M107.4,36.8l-1.8-1.9c-1.3-2.3-2.2-4.7-2.2-7l5.9-0.1l1.5,6.4l0.9,0.7
				l-4,1.9H107.4z M122.9,40.9c0.7-1.5,2.2-3.2,2.6-4.9l4.2,1.5l-1.7,1.7l-2.7,1.3l-2,0.5H122.9L122.9,40.9z M114.6,40.9
				c-2-0.2-3.9-1.5-6.1-3l2.6-2.1c0.2,0,0.2,0,0.2,0c1.5,0.8,2.2,2.7,3.7,4.3l0.2,1.1L114.6,40.9L114.6,40.9z M116.3,41.5
				c-0.9-1.9-2.7-4.1-3.5-6.2l5.7-1.5c0,0.4,0,0.4,0,0.4l0.2,4.3l-0.2,3h-1.8H116.3z M120.5,41.5h-1.1V34l5.7,0.9l-3.8,6.6
				c-0.2,0-0.2,0-0.2,0H120.5z"/>
			<defs>
				<filter id="Adobe_OpacityMaskFilter_1_" filterUnits="userSpaceOnUse" x="72.7" y="0.7" width="28.8" height="48.6">
					<feColorMatrix  type="matrix" values="1 0 0 0 0  0 1 0 0 0  0 0 1 0 0  0 0 0 1 0"/>
				</filter>
			</defs>
			<mask maskUnits="userSpaceOnUse" x="72.7" y="0.7" width="28.8" height="48.6" id="id2_1_">
				
					<linearGradient id="XMLID_4_" gradientUnits="userSpaceOnUse" x1="3887.2361" y1="-5423.2324" x2="3896.3557" y2="-5508.9727" gradientTransform="matrix(2.834646e-002 0 0 -2.834646e-002 -19.4331 -94.7197)">
					<stop  offset="0" style="stop-color:#FFFFFF"/>
					<stop  offset="1" style="stop-color:#FFFFFF;stop-opacity:0"/>
				</linearGradient>
				<rect id="XMLID_73_" x="72.6" y="0.6" class="st2" width="29" height="48.8"/>
			</mask>
			<polygon id="XMLID_24_" class="st3" points="72.7,40.5 79.3,15.1 87.1,30.9 95.1,0.7 101.5,40.5 95.3,41 93.3,30.2 87.1,49.3 
				81.1,30.1 78.9,41.2 			"/>
			<defs>
				<filter id="Adobe_OpacityMaskFilter_2_" filterUnits="userSpaceOnUse" x="155.3" y="13.9" width="49.2" height="25.5">
					<feColorMatrix  type="matrix" values="1 0 0 0 0  0 1 0 0 0  0 0 1 0 0  0 0 0 1 0"/>
				</filter>
			</defs>
			<mask maskUnits="userSpaceOnUse" x="155.3" y="13.9" width="49.2" height="25.5" id="id4_1_">
				
					<linearGradient id="XMLID_12_" gradientUnits="userSpaceOnUse" x1="7118.0347" y1="-5093.1851" x2="7124.3047" y2="-5152.2251" gradientTransform="matrix(2.834646e-002 0 0 -2.834646e-002 -19.4331 -94.7197)">
					<stop  offset="0" style="stop-color:#FFFFFF"/>
					<stop  offset="1" style="stop-color:#FFFFFF;stop-opacity:0"/>
				</linearGradient>
				<rect id="XMLID_62_" x="155.2" y="13.8" class="st4" width="49.4" height="25.7"/>
			</mask>
			<path id="XMLID_17_" class="st5" d="M190.8,25.7h1.4c0.8,0,1.4-0.2,1.9-0.5c0.5-0.3,0.9-0.7,1.1-1.2c0.2-0.5,0.3-1,0.3-1.6
				c-0.1-2.1-1.2-3.1-3.4-3.1h-1.3L190.8,25.7L190.8,25.7z M197.8,28.2l6.7,9.1l-6.4,2l-7.4-11.3v10.7l-6.4,0.4V14.6h7.5
				c1.4,0,2.6,0.1,3.7,0.3c1.1,0.2,2.1,0.6,3,1.2c0.9,0.5,1.6,1.3,2.2,2.2c0.6,0.9,0.9,2,1,3.4C201.8,24.6,200.4,26.8,197.8,28.2
				L197.8,28.2z M168.5,13.9c1.8,0,3.5,0.4,5,1c1.6,0.7,3,1.6,4.1,2.8c1.2,1.2,2.1,2.6,2.8,4.1c0.7,1.6,1,3.2,1,5
				c0,1.7-0.4,3.3-1.1,4.8c-0.7,1.5-1.6,2.8-2.8,4c-1.2,1.1-2.6,2-4.2,2.7c-1.6,0.6-3.3,1-5,1c-2.5,0-4.7-0.7-6.7-1.8
				c-2-1.2-3.5-2.7-4.6-4.7c-1.1-2-1.6-4.2-1.6-6.7c0-1.7,0.4-3.3,1.1-4.8c0.7-1.5,1.7-2.8,2.9-3.9c1.2-1.1,2.6-2,4.2-2.6
				C165,14.2,166.7,13.9,168.5,13.9L168.5,13.9z M168.2,19.7c-1.2,0-2.3,0.4-3.4,1c-1,0.7-1.9,1.6-2.5,2.7c-0.6,1.1-0.9,2.4-0.9,3.7
				c0.1,1.1,0.4,2.2,1.1,3.2c0.7,1,1.6,1.8,2.7,2.4c1.1,0.6,2.2,0.9,3.5,0.9c1.1-0.1,2.1-0.4,3.2-1.1c1-0.7,1.9-1.5,2.5-2.6
				c0.6-1.1,1-2.2,1-3.3c0-0.3,0-0.5,0-0.6c-0.1-1.2-0.5-2.3-1.2-3.3c-0.7-1-1.5-1.7-2.5-2.3C170.5,19.9,169.4,19.7,168.2,19.7z"/>
			<defs>
				<filter id="Adobe_OpacityMaskFilter_3_" filterUnits="userSpaceOnUse" x="134.4" y="14.6" width="18.7" height="24.6">
					<feColorMatrix  type="matrix" values="1 0 0 0 0  0 1 0 0 0  0 0 1 0 0  0 0 0 1 0"/>
				</filter>
			</defs>
			<mask maskUnits="userSpaceOnUse" x="134.4" y="14.6" width="18.7" height="24.6" id="id6_1_">
				
					<linearGradient id="XMLID_13_" gradientUnits="userSpaceOnUse" x1="5855.6641" y1="-5228.0112" x2="5861.7339" y2="-5285.2715" gradientTransform="matrix(2.834646e-002 0 0 -2.834646e-002 -19.4331 -94.7197)">
					<stop  offset="0" style="stop-color:#FFFFFF"/>
					<stop  offset="1" style="stop-color:#FFFFFF;stop-opacity:0"/>
				</linearGradient>
				<rect id="XMLID_57_" x="134.3" y="14.5" class="st6" width="18.9" height="24.9"/>
			</mask>
			<polygon id="XMLID_14_" class="st7" points="153.1,20.4 147.1,20.4 147.1,38.7 140.9,39.2 140.9,20.4 134.4,20.4 136,14.6 
				153.1,14.6 			"/>
			<defs>
				<filter id="Adobe_OpacityMaskFilter_4_" filterUnits="userSpaceOnUse" x="3.3" y="13.9" width="69.6" height="25.5">
					<feColorMatrix  type="matrix" values="1 0 0 0 0  0 1 0 0 0  0 0 1 0 0  0 0 0 1 0"/>
				</filter>
			</defs>
			<mask maskUnits="userSpaceOnUse" x="3.3" y="13.9" width="69.6" height="25.5" id="id8_1_">
				
					<linearGradient id="XMLID_15_" gradientUnits="userSpaceOnUse" x1="2170.2966" y1="-5609.3613" x2="2178.5466" y2="-5687.0215" gradientTransform="matrix(2.834646e-002 0 0 -2.834646e-002 -19.4331 -94.7197)">
					<stop  offset="0" style="stop-color:#FFFFFF"/>
					<stop  offset="1" style="stop-color:#FFFFFF;stop-opacity:0"/>
				</linearGradient>
				<rect id="XMLID_48_" x="3.2" y="13.8" class="st8" width="69.8" height="25.7"/>
			</mask>
			<path id="XMLID_5_" class="st9" d="M10.5,19.9H9.6V25h0.9c2.7,0,4.1-0.9,4.1-2.6c0-1-0.4-1.7-1.1-2
				C12.7,20.1,11.7,19.9,10.5,19.9z M14.8,29.9c-0.6,0.2-1.7,0.3-3.5,0.4c-0.4,0-0.8,0-1.1,0c-0.3,0-0.5,0-0.6,0v8.4l-6.3,0.5V14.6
				h6.9c1.5,0,2.9,0.1,4.1,0.4c1.2,0.3,2.3,0.7,3.3,1.3c1,0.6,1.7,1.4,2.3,2.4c0.6,1,0.8,2.3,0.8,3.8c0,1.6-0.5,3.1-1.4,4.5
				C18.4,28.4,16.9,29.4,14.8,29.9z M38.4,28.2l6.7,9.1l-6.4,2l-7.4-11.3v10.7l-6.4,0.4V14.6h7.5c1.4,0,2.6,0.1,3.7,0.3
				c1.1,0.2,2.1,0.6,3,1.2c0.9,0.5,1.6,1.3,2.2,2.2c0.6,0.9,0.9,2,1,3.3C42.3,24.6,41,26.8,38.4,28.2z M31.3,25.7h1.4
				c0.8,0,1.4-0.2,1.9-0.5c0.5-0.3,0.9-0.7,1.1-1.2c0.2-0.5,0.3-1,0.3-1.6c-0.1-2.1-1.2-3.1-3.4-3.1h-1.3V25.7z M59.6,19.7
				c-1.2,0-2.3,0.4-3.4,1c-1,0.7-1.9,1.6-2.5,2.7c-0.6,1.1-0.9,2.4-0.9,3.7c0.1,1.1,0.4,2.2,1.1,3.2c0.7,1,1.6,1.8,2.7,2.4
				c1.1,0.6,2.2,0.9,3.5,0.9c1.1-0.1,2.1-0.4,3.2-1.1c1-0.7,1.9-1.5,2.5-2.6c0.6-1.1,1-2.2,1-3.3c0-0.3,0-0.5,0-0.6
				c-0.1-1.2-0.5-2.3-1.2-3.3c-0.7-1-1.5-1.7-2.5-2.3C61.9,19.9,60.8,19.7,59.6,19.7z M59.9,13.9c1.8,0,3.5,0.4,5,1
				c1.6,0.7,3,1.6,4.1,2.8c1.2,1.2,2.1,2.6,2.8,4.1c0.7,1.6,1,3.2,1,5c0,1.7-0.4,3.3-1.1,4.8c-0.7,1.5-1.6,2.8-2.8,4
				c-1.2,1.1-2.6,2-4.2,2.7c-1.6,0.6-3.3,1-5,1c-2.5,0-4.7-0.7-6.7-1.8c-2-1.2-3.5-2.7-4.6-4.7c-1.1-2-1.6-4.2-1.6-6.7
				c0-1.7,0.4-3.3,1.1-4.8c0.7-1.5,1.7-2.8,2.9-3.9c1.2-1.1,2.6-2,4.2-2.6C56.5,14.2,58.2,13.9,59.9,13.9z"/>
		</g>
	</g>
</g>
</svg>
