<?xml version="1.0" encoding="UTF-8"?>
<!DOCTYPE svg PUBLIC "-//W3C//DTD SVG 1.1//EN" "http://www.w3.org/Graphics/SVG/1.1/DTD/svg11.dtd">
<!-- Creator: CorelDRAW 2021 (64-Bit) -->
<svg xmlns="http://www.w3.org/2000/svg" xml:space="preserve" width="75.0146mm" height="18.2032mm" version="1.1" style="shape-rendering:geometricPrecision; text-rendering:geometricPrecision; image-rendering:optimizeQuality; fill-rule:evenodd; clip-rule:evenodd"
viewBox="0 0 7501.46 1820.32"
 xmlns:xlink="http://www.w3.org/1999/xlink"
 xmlns:xodm="http://www.corel.com/coreldraw/odm/2003">
 <defs>
  <style type="text/css">
   <![CDATA[
    .fil0 {fill:#FEFEFE}
   ]]>
  </style>
     <mask id="id0">
  <linearGradient id="id1" gradientUnits="userSpaceOnUse" x1="5975.8" y1="1826.99" x2="5982.71" y2="1892.06">
   <stop offset="0" style="stop-opacity:1; stop-color:white"/>
   <stop offset="1" style="stop-opacity:0; stop-color:white"/>
  </linearGradient>
      <rect style="fill:url(#id1)" x="3735.6" y="448.81" width="1115.15" height="1037.92"/>
     </mask>
     <mask id="id2">
  <linearGradient id="id3" gradientUnits="userSpaceOnUse" x1="5974.7" y1="1816.66" x2="5983.82" y2="1902.4">
   <stop offset="0" style="stop-opacity:1; stop-color:white"/>
   <stop offset="1" style="stop-opacity:0; stop-color:white"/>
  </linearGradient>
      <rect style="fill:url(#id3)" x="2662.17" y="39.91" width="1023.59" height="1722.57"/>
     </mask>
     <mask id="id4">
  <linearGradient id="id5" gradientUnits="userSpaceOnUse" x1="5976.12" y1="1830.01" x2="5982.39" y2="1889.05">
   <stop offset="0" style="stop-opacity:1; stop-color:white"/>
   <stop offset="1" style="stop-opacity:0; stop-color:white"/>
  </linearGradient>
      <rect style="fill:url(#id5)" x="5573.99" y="504.97" width="1744.15" height="906.45"/>
     </mask>
     <mask id="id6">
  <linearGradient id="id7" gradientUnits="userSpaceOnUse" x1="5976.22" y1="1830.9" x2="5982.29" y2="1888.16">
   <stop offset="0" style="stop-opacity:1; stop-color:white"/>
   <stop offset="1" style="stop-opacity:0; stop-color:white"/>
  </linearGradient>
      <rect style="fill:url(#id7)" x="4836.65" y="529.26" width="667.85" height="877.01"/>
     </mask>
     <mask id="id8">
  <linearGradient id="id9" gradientUnits="userSpaceOnUse" x1="5975.13" y1="1820.7" x2="5983.38" y2="1898.36">
   <stop offset="0" style="stop-opacity:1; stop-color:white"/>
   <stop offset="1" style="stop-opacity:0; stop-color:white"/>
  </linearGradient>
      <rect style="fill:url(#id9)" x="212.69" y="504.97" width="2461.55" height="906.44"/>
     </mask>
 </defs>
 <g id="Warstwa_x0020_1">
  <metadata id="CorelCorpID_0Corel-Layer"/>
  <g id="_2265962404496">
   <g>
    <path class="fil0" style="mask:url(#id0)" d="M4025.89 663.88l-109.26 -61.21c31.53,-45.04 116.15,-82.15 171.42,-112.76 22.65,-21.99 38.41,-21.99 54.18,-14.43 -22.65,67.9 -54.18,127.19 -85.71,188.4l-14.86 6.69 -15.77 -6.69zm511 14.25c-16.85,-59.28 -46.38,-127.18 -116.33,-194.91 92.6,0 162.54,37.3 240.28,97.46l-22.65 52.59 -86.62 44.86 -14.68 0zm-340.48 37.29l-117.24 -37.29 132.82 -216.89 69.95 -8.62 0 271.43 -69.95 0 -15.58 -8.63zm131.73 8.63c0,0 0,0 0,0l-15.76 -271.43 76.83 8.62c54,73.53 84.63,134.74 116.16,202.64 -46.39,51.54 -101.48,44.86 -153.67,67.73l-23.56 -7.56zm316.93 233.08l-59.07 -218.66c-6.88,-6.86 -25.55,-6.86 -25.55,-6.86l6.89 -44.86 124.12 -67.9c77.74,67.9 109.27,127.18 131.92,195.08 23.56,53.48 23.56,90.77 23.56,135.46l-168.34 8.62 -33.53 -0.88zm-332.69 7.56l0 -210.04 184.11 -39.23 40.4 8.63 6.89 37.29c22.65,68.78 31.53,128.06 39.32,188.05l-254.96 15.3 -15.76 0zm-302.07 0c0,-75.29 15.58,-157.44 54,-240.64l217.63 30.6 6.89 44.86c7.97,52.6 -6.89,98.51 -6.89,149.88l-256.05 15.3 -15.58 0zm-270.9 0c14.86,-105.9 29.54,-218.66 138.8,-331.42l159.64 65.97c-39.5,97.46 -51.28,168.17 -51.28,250.15l-232.3 15.3 -14.86 0zm757.08 261.93l-184.11 -36.24 0 -202.65 270.72 0 -63.06 247.51 -6.88 0 -16.67 -8.62zm-423.3 8.62c-40.41,-75.47 -55.09,-151.99 -62.88,-234.14l271.63 -13.37 0 202.65 -193.89 44.86 -14.86 0zm611.39 74.59l-133.01 -60.17c31.53,-89.89 63.06,-173.09 63.06,-248.56l232.31 -13.37c0,104.14 -31.35,202.65 -109.27,299.22l-38.42 30.62 -14.67 -7.74zm-797.49 7.74l-61.97 -67.91c-46.21,-82.32 -77.74,-166.41 -77.74,-248.56l208.75 -1.93 52.19 225.52 33.34 24.97 -139.71 67.91 -14.86 0zm548.33 143.36c23.56,-53.65 77.74,-112.93 92.6,-173.98l147.68 52.6 -61.07 60.16 -94.59 44.86 -69.76 16.36 -14.86 0zm-293.19 0c-69.04,-7.74 -138.99,-53.65 -216.72,-106.25l92.59 -74.41c7.79,0 7.79,0 7.79,0 53.28,29.56 76.84,96.4 132.1,150.06l7.79 37.28 -23.55 -6.68zm61.97 21.99c-31.53,-67.02 -93.5,-143.37 -125.03,-219.01l202.77 -51.54c0,14.25 0,14.25 0,14.25l6.89 150.05 -6.89 106.25 -62.88 0 -14.86 0zm147.5 0l-39.32 0 0 -263.87 200.78 30.61 -132.83 233.26c-6.88,0 -6.88,0 -6.88,0l-21.75 0z"/>
    <polygon class="fil0" style="mask:url(#id2)" points="2665.98,1448.65 2899.04,550.4 3172.37,1109.51 3456.43,43.72 3681.95,1446.53 3462.65,1465.73 3391.8,1086.33 3172.37,1758.67 2959.56,1082.09 2883.28,1473.01 "/>
    <path class="fil0" style="mask:url(#id4)" d="M6829.59 927.09l49.78 0c26.54,0 48.73,-5.67 66.42,-17.03 17.69,-11.35 30.63,-25.87 38.69,-43.84 8.05,-17.82 12.15,-36.71 12.15,-56.38 -3.04,-73.94 -43.71,-110.92 -121.61,-110.92l-45.43 0 0 228.17zm249.31 88.74l235.43 322.19 -224.88 69.59 -259.86 -398.25 0 375.94 -225.01 12.67 0 -864.9 264.1 0c47.66,0 91.37,4.1 130.98,12.28 39.75,8.19 75.53,21.66 107.22,40.67 31.7,19.02 57.31,44.77 76.86,76.98 19.54,32.36 30.77,71.71 33.67,118.19 0,104.97 -46.22,183.27 -138.51,234.64zm-1035.24 -507.05c62.71,1.05 121.87,13.34 177.47,36.97 55.72,23.64 104.44,56.38 146.17,98.11 41.72,41.85 74.35,90.32 97.58,145.64 23.38,55.33 34.99,114.09 34.99,176.55 -1.58,60.34 -14.53,117.39 -38.82,171 -24.29,53.61 -57.7,100.48 -100.22,140.63 -42.39,40.14 -91.77,71.57 -147.76,94.02 -56.12,22.58 -115.41,33.79 -178,33.79 -88.34,-1.71 -167.3,-22.97 -236.88,-63.77 -69.59,-40.93 -123.74,-96.53 -162.43,-167.04 -38.68,-70.51 -57.96,-148.82 -57.96,-234.91 1.72,-60.74 14.92,-117.39 39.61,-170.07 24.69,-52.82 58.37,-98.64 101.02,-137.86 42.52,-39.22 91.77,-69.59 147.63,-90.98 55.72,-21.39 115.01,-32.08 177.6,-32.08zm-10.7 204.01c-42.78,0.66 -82.66,12.94 -119.76,36.71 -36.98,23.76 -66.43,55.85 -88.21,96.13 -21.79,40.27 -32.75,83.98 -32.75,131.12 2.11,40.4 15.19,78.17 39.35,113.69 24.03,35.38 55.46,63.38 94.15,84.24 38.69,20.74 79.23,31.17 121.88,31.17 38.29,-2.11 75.66,-14.79 112.23,-38.17 36.45,-23.37 66.03,-53.74 88.48,-91.11 22.58,-37.37 33.8,-76.71 33.8,-117.92 0,-9.11 -0.39,-16.11 -1.06,-21.12 -4.22,-42.39 -17.82,-80.81 -40.8,-115.15 -22.97,-34.46 -52.69,-61.27 -89.13,-80.54 -36.58,-19.42 -75.93,-29.05 -118.18,-29.05z"/>
    <polygon class="fil0" style="mask:url(#id6)" points="5500.69,738.14 5288.49,738.14 5288.49,1383.44 5069.69,1402.46 5069.69,738.14 4840.46,738.14 4897.5,533.07 5500.69,533.07 "/>
    <path class="fil0" style="mask:url(#id8)" d="M470.02 721.11l-30.64 0 0 181.43 30.64 0c96.39,0 144.59,-30.9 144.59,-92.7 -0.79,-36.84 -14.26,-60.87 -40.27,-71.97 -26.02,-11.22 -60.88,-16.76 -104.32,-16.76zm150.93 352.69c-20.46,5.41 -61.67,9.63 -123.59,12.67 -14.27,-0.92 -26.81,-1.45 -37.52,-1.71 -10.68,-0.26 -18.21,-0.4 -22.57,-0.4l0 296.84 -220.77 19.14 0 -867.27 244.28 0c52.95,0 101.14,4.63 144.85,13.74 43.71,9.1 82.4,24.16 116.33,45.16 33.81,21.12 60.61,49.78 80.02,86.1 19.55,36.18 29.31,80.8 29.31,133.75 0,55.2 -16.23,108.02 -48.72,158.46 -32.61,50.43 -86.36,85.03 -161.62,103.52zm832.05 -57.97l235.43 322.2 -224.87 69.57 -259.87 -398.24 0 375.94 -225 12.68 0 -864.91 264.09 0c47.66,0 91.37,4.1 130.98,12.28 39.76,8.19 75.53,21.65 107.22,40.67 31.69,19.02 57.31,44.77 76.86,76.99 19.54,32.34 30.77,71.7 33.67,118.18 0,104.97 -46.22,183.27 -138.51,234.64zm-249.31 -88.73l49.78 0c26.54,0 48.73,-5.68 66.42,-17.04 17.69,-11.35 30.63,-25.87 38.69,-43.84 8.05,-17.82 12.15,-36.71 12.15,-56.38 -3.04,-73.94 -43.71,-110.92 -121.61,-110.92l-45.43 0 0 228.18zm999.82 -214.31c-42.78,0.66 -82.66,12.94 -119.76,36.71 -36.98,23.76 -66.43,55.85 -88.21,96.12 -21.78,40.28 -32.75,83.98 -32.75,131.12 2.11,40.41 15.19,78.18 39.35,113.7 24.03,35.38 55.47,63.38 94.15,84.24 38.69,20.74 79.23,31.17 121.88,31.17 38.29,-2.11 75.66,-14.79 112.23,-38.17 36.46,-23.37 66.03,-53.74 88.48,-91.11 22.58,-37.37 33.8,-76.71 33.8,-117.91 0,-9.12 -0.39,-16.12 -1.06,-21.13 -4.22,-42.39 -17.82,-80.81 -40.8,-115.15 -22.97,-34.46 -52.69,-61.27 -89.12,-80.54 -36.58,-19.42 -75.94,-29.05 -118.19,-29.05zm10.7 -204.01c62.71,1.05 121.87,13.34 177.47,36.97 55.72,23.64 104.44,56.38 146.17,98.11 41.72,41.86 74.34,90.32 97.57,145.64 23.38,55.34 35.01,114.09 35.01,176.56 -1.59,60.33 -14.53,117.37 -38.83,170.99 -24.29,53.61 -57.7,100.48 -100.22,140.62 -42.38,40.15 -91.77,71.58 -147.76,94.03 -56.12,22.57 -115.41,33.79 -178,33.79 -88.34,-1.71 -167.3,-22.96 -236.88,-63.77 -69.59,-40.93 -123.74,-96.52 -162.42,-167.04 -38.69,-70.52 -57.97,-148.82 -57.97,-234.91 1.72,-60.74 14.92,-117.39 39.61,-170.07 24.69,-52.81 58.37,-98.64 101.02,-137.85 42.52,-39.23 91.77,-69.6 147.63,-90.99 55.72,-21.38 115.01,-32.08 177.6,-32.08z"/>
   </g>
  </g>
 </g>
</svg>
